<svg xmlns="http://www.w3.org/2000/svg" width="800" height="160" viewBox="0 0 800 160" role="img" aria-label="Document closure  Engineering System Specification">
  <defs>
    <pattern id="fgrid" width="20" height="20" patternUnits="userSpaceOnUse">
      <path d="M 20 0 L 0 0 0 20" fill="none" stroke="#e5e5e5" stroke-width="0.5"/>
    </pattern>
  </defs>

  <rect x="1" y="1" width="798" height="158" fill="#fafafa" stroke="#e5e5e5" stroke-width="1"/>
  <rect x="16" y="16" width="768" height="128" fill="url(#fgrid)" stroke="none"/>

  <g stroke="#3b6fa8" stroke-width="1" fill="none">
    <path d="M 8 8 L 8 18 M 8 8 L 18 8"/>
    <path d="M 792 8 L 792 18 M 792 8 L 782 8"/>
    <path d="M 8 152 L 8 142 M 8 152 L 18 152"/>
    <path d="M 792 152 L 792 142 M 792 152 L 782 152"/>
  </g>

  <text x="48" y="44" font-family="ui-monospace, monospace" font-size="10" fill="#3b6fa8" letter-spacing="2">DOCUMENT CLOSURE</text>

  <line x1="48" y1="56" x2="752" y2="56" stroke="#e5e5e5" stroke-width="1"/>

  <text x="48" y="80" font-family="ui-monospace, monospace" font-size="9" fill="#a3a3a3">STATUS</text>
  <text x="160" y="80" font-family="ui-monospace, monospace" font-size="12" fill="#1a1a1a">ACTIVE  ACCEPTING COLLABORATION</text>

  <text x="48" y="104" font-family="ui-monospace, monospace" font-size="9" fill="#a3a3a3">CONTACT</text>
  <text x="160" y="104" font-family="ui-monospace, monospace" font-size="11" fill="#3b6fa8">github.com/aitch-cmd</text>
  <text x="360" y="104" font-family="ui-monospace, monospace" font-size="11" fill="#3b6fa8">linkedin.com/in/harshit-singh-8b37b1257</text>

  <text x="48" y="128" font-family="ui-monospace, monospace" font-size="9" fill="#a3a3a3">REVISION</text>
  <text x="160" y="128" font-family="ui-monospace, monospace" font-size="11" fill="#525252">HS-ENG-2024 ¯ Rev 3.0 ¯ Greater Noida, IN</text>

  <rect x="600" y="88" width="160" height="48" fill="#ffffff" stroke="#e5e5e5" stroke-width="1"/>
  <text x="612" y="108" font-family="ui-monospace, monospace" font-size="9" fill="#a3a3a3">SHEET</text>
  <text x="612" y="126" font-family="ui-monospace, monospace" font-size="11" fill="#1a1a1a">01/01  END OF SPEC</text>
</svg>
