<svg xmlns="http://www.w3.org/2000/svg" width="800" height="420" viewBox="0 0 800 420" role="img" aria-label="Engineering System Specification  Harshit Singh">
  <defs>
    <pattern id="grid" width="20" height="20" patternUnits="userSpaceOnUse">
      <path d="M 20 0 L 0 0 0 20" fill="none" stroke="#e5e5e5" stroke-width="0.5"/>
    </pattern>
  </defs>

  <!-- Frame -->
  <rect x="1" y="1" width="798" height="418" fill="#fafafa" stroke="#e5e5e5" stroke-width="1"/>
  <rect x="16" y="16" width="768" height="388" fill="url(#grid)" stroke="none"/>

  <!-- Registration marks -->
  <g stroke="#3b6fa8" stroke-width="1" fill="none">
    <path d="M 8 8 L 8 20 M 8 8 L 20 8"/>
    <path d="M 792 8 L 792 20 M 792 8 L 780 8"/>
    <path d="M 8 412 L 8 400 M 8 412 L 20 412"/>
    <path d="M 792 412 L 792 400 M 792 412 L 780 412"/>
  </g>

  <!-- Title block -->
  <rect x="520" y="300" width="248" height="88" fill="#ffffff" stroke="#e5e5e5" stroke-width="1"/>
  <text x="532" y="322" font-family="ui-monospace, monospace" font-size="9" fill="#a3a3a3">DOCUMENT ID</text>
  <text x="532" y="338" font-family="ui-monospace, monospace" font-size="11" fill="#1a1a1a">HS-ENG-2024</text>
  <text x="532" y="358" font-family="ui-monospace, monospace" font-size="9" fill="#a3a3a3">REVISION</text>
  <text x="532" y="374" font-family="ui-monospace, monospace" font-size="11" fill="#1a1a1a">3.0  PROFILE REDESIGN</text>
  <text x="680" y="374" font-family="ui-monospace, monospace" font-size="9" fill="#a3a3a3">SHEET 01/01</text>

  <!-- System title -->
  <text x="48" y="56" font-family="ui-monospace, monospace" font-size="10" fill="#3b6fa8" letter-spacing="2">ENGINEERING SYSTEM SPECIFICATION</text>
  <text x="48" y="88" font-family="system-ui, sans-serif" font-size="28" font-weight="600" fill="#1a1a1a">Harshit Singh</text>
  <text x="48" y="108" font-family="ui-monospace, monospace" font-size="11" fill="#a3a3a3">BUILD SYSTEM ť OPERATOR AUTHORIZED</text>

  <!-- Spec fields -->
  <line x1="48" y1="128" x2="480" y2="128" stroke="#e5e5e5" stroke-width="1"/>

  <text x="48" y="152" font-family="ui-monospace, monospace" font-size="9" fill="#a3a3a3">OPERATOR</text>
  <text x="160" y="152" font-family="system-ui, sans-serif" font-size="13" fill="#1a1a1a">Harshit Singh</text>

  <text x="48" y="178" font-family="ui-monospace, monospace" font-size="9" fill="#a3a3a3">CLASSIFICATION</text>
  <text x="160" y="178" font-family="ui-monospace, monospace" font-size="12" fill="#525252">AI Engineer ť Full Stack ť Open Source ť Competitive Programming</text>

  <text x="48" y="204" font-family="ui-monospace, monospace" font-size="9" fill="#a3a3a3">CURRENT FOCUS</text>
  <text x="160" y="204" font-family="system-ui, sans-serif" font-size="12" fill="#525252">Building AI-powered products solving real-world problems</text>

  <text x="48" y="230" font-family="ui-monospace, monospace" font-size="9" fill="#a3a3a3">DOMAINS</text>
  <text x="160" y="230" font-family="ui-monospace, monospace" font-size="11" fill="#525252">Healthcare ť Education ť Accessibility ť Developer Productivity ť Civic Tech ť AI</text>

  <line x1="48" y1="248" x2="480" y2="248" stroke="#e5e5e5" stroke-width="1"/>

  <!-- Verified metrics -->
  <text x="48" y="272" font-family="ui-monospace, monospace" font-size="9" fill="#a3a3a3">VERIFIED OUTPUT</text>

  <rect x="160" y="256" width="110" height="48" fill="#ffffff" stroke="#e5e5e5" stroke-width="1"/>
  <text x="170" y="276" font-family="ui-monospace, monospace" font-size="18" font-weight="600" fill="#1a1a1a">9</text>
  <text x="170" y="294" font-family="ui-monospace, monospace" font-size="8" fill="#a3a3a3">INTL HACKATHON WINS</text>

  <rect x="280" y="256" width="90" height="48" fill="#ffffff" stroke="#e5e5e5" stroke-width="1"/>
  <text x="290" y="276" font-family="ui-monospace, monospace" font-size="18" font-weight="600" fill="#1a1a1a">20+</text>
  <text x="290" y="294" font-family="ui-monospace, monospace" font-size="8" fill="#a3a3a3">SHIPPED PROJECTS</text>

  <rect x="380" y="256" width="120" height="48" fill="#ffffff" stroke="#e5e5e5" stroke-width="1"/>
  <text x="390" y="276" font-family="ui-monospace, monospace" font-size="11" font-weight="600" fill="#1a1a1a">AI ť OSS ť CP</text>
  <text x="390" y="294" font-family="ui-monospace, monospace" font-size="8" fill="#a3a3a3">CORE DISCIPLINES</text>

  <!-- Endpoints -->
  <line x1="48" y1="320" x2="480" y2="320" stroke="#e5e5e5" stroke-width="1"/>
  <text x="48" y="344" font-family="ui-monospace, monospace" font-size="9" fill="#a3a3a3">ENDPOINTS</text>
  <text x="160" y="344" font-family="ui-monospace, monospace" font-size="11" fill="#3b6fa8">github.com/aitch-cmd</text>
  <text x="340" y="344" font-family="ui-monospace, monospace" font-size="11" fill="#3b6fa8">linkedin.com/in/harshit-singh-8b37b1257</text>
  <text x="48" y="368" font-family="ui-monospace, monospace" font-size="11" fill="#3b6fa8">devpost.com/sharshitsingh007</text>
</svg>
